/* XPM */
static char *logo[] = {
/* columns rows colors chars-per-pixel */
"87 87 13 1 ",
"  c #006F8B",
". c #00708B",
"X c #00708C",
"o c #00718C",
"O c #00718D",
"+ c #00ADEF",
"@ c #00AEF0",
"# c #00AFF2",
"$ c #C2C6C9",
"% c #C6C8CA",
"& c #C7C8CA",
"* c #C7C9CA",
"= c None",
/* pixels */
"=======================================================================================",
"=======================================================================================",
"=======================================================================================",
"=====================================+++++++===========================================",
"=====================================++++++++==========================================",
"=====================================++++++++==========================================",
"=====================================++++++++==========================================",
"=====================================++++++++===OOOOOOO================================",
"=====================================++++++++===OOOOOOOO===============================",
"====================================+++++++++===OOOOOOOO===============================",
"==============================++++++++++++++====OOOOOOOO===============================",
"=============================+++++++++==========OOOOOOOO===============================",
"=============================++++++++==========OOOOOOOOO===============================",
"=============================++++++++==========OOOOOOOO================================",
"=============================++++++++====OOOOOOOOOOOOOO================================",
"=============================++++++++===OOOOOOOOO======================================",
"=============================++++++++===OOOOOOOO=======================================",
"=============================++++++++===OOOOOOOO=======================================",
"==============================++++++====OOOOOOOO=======================================",
"========================================OOOOOOOO=======================================",
"========================================OOOOOOOOO======================================",
"=========================================OOOOOOOOOOOOOO================================",
"===============================================OOOOOOOOO===============================",
"================================================OOOOOOOO===============================",
"================================================OOOOOOOO===============================",
"================================================OOOOOOOO===============================",
"================================================OOOOOOOO===============================",
"================================================OOOOOOOO===============================",
"================================================OOOOOOO================================",
"=======================================================================================",
"=====================OOOOOOOO==========================================================",
"=================OOOOOOOOOOOOOOO=======================================================",
"==============OOOOOOOOOOOOOOOOOO=========++++++========+++=============================",
"============OOOOOOOOOOOOOOOOOOOO========+++++++========+++++===========================",
"==========OOOOOOOOOOOOOOOOOOOOOO========+++++++========+++++++=========================",
"=========OOOOOOOOOOOOOOOOOOOOOOO========+++++++========+++++++++=======================",
"=======OOOOOOOOOOOOOOOOOOOOOOOOO========+++++++========+++++++++++=====================",
"======OOOOOOOOOOOOOOOOOOOOOOOOOO========+++++++========++++++++++++====================",
"=====OOOOOOOOOOOOOOOOOOOOOOOOOOOO========+++++=========++++++++++++++==================",
"======OOOOOOOOOOOOOOOOOOOOOOOOOOOOOOOOO==========++++++++++++++++++++==================",
"======OOOOOOOOOOOOOOOOOOOOOOOOOOOOOOOOOO========++++++++++++++++++++++=================",
"======OOOOOOOOOOOOOOOOOOOOOOOOOOOOOOOOOO========++++++++++++++++++++++=================",
"=======OOOOOOOOOOOOOOOOOOOOOOOOOOOOOOOOO========++++++++++++++++++++++=================",
"=======OOOOOOOOOOOOOOOOOOOOOOOOOOOOOOOOO========+++++++++++++++++++++++================",
"=======OOOOOOOOOOOOOOOOOOOOOOOOOOOOOOOOO========+++++++++++++++++++++++================",
"========OOOOOOOOOOOOOOOOOOOOOOOOOOOOOOOO========++++++++++++++++++++++++===============",
"========OOOOOOOOOOOOOOOOOOOOOOOOOOOOOOOO===============+++++++++++++++++===============",
"========OOOOOOOOOOOOOOOOOOOOOOOOOOOOOOOOOOOOOOO========++++++++++++++++++==============",
"========OOOOOOOOOOOOOOOOOOOOOOOOOOOOOOOOOOOOOOO========++++++++++++++++++==============",
"=========OOOOOOOOOOOOOOOOOOOOOOOOOOOOOOOOOOOOOO========+++++++++++++++++++=============",
"=========OOOOOOOOOOOOOOOOOOOOOOOOOOOOOOOOOOOOOO========+++++++++++++++++++=============",
"=========OOOOOOOOOOOOOOOOOOOOOOOOOOOOOOOOOOOOOO========+++++++++++++++++++=============",
"==========OOOOOOOOOOOOOOOOOOOOOOOOOOOOOOOOOOOOO========++++++++++++++++++++============",
"==========OOOOOOOOOOOOOOOOOOOOOOOOOOOOOOOOOOOOO========++++++++++++++++++++============",
"==========OOOOOOOOOOOOOOOOOOOOOOOOOOOOOOOOOOOOOOO==+++++++++++++++++++++++++===========",
"===========OOOOOOOOOOOOOOOOOOOOOOOOOOOOOOOOOOOOOOO=+++++++++++++++++++++++++===========",
"===========OOOOOOOOOOOOOOOOOOOOOOOOOOOOOOOOOOOOOOO==+++++++++++++++++++++++++==========",
"===========OOOOOOOOOOOOOOOOOOOOOOOOOOOOOOOOOOOOOOO.=+++++++++++++++++++++++++==========",
"============OOOOOOOOOOOOOOOOOOOOOOOOOOOOOOOOOOOOOOO=@+++++++++++++++++++++++++=========",
"============OOOOOOOOOOOOOOOOOOOOOOOOOOOOOOOOOOOOOOO==++++++++++===========++++=========",
"============OOOOOOOOOOOOOOOOOOOOOOOOOOOOOOOOOOOOOOOO=++++++++================+=========",
"============OOOOOOOOOOOOOOOOOOOOOOOOOOOOOOOOOOOOOOOO==++++++===%%%%%%%%%%==============",
"=============OOOOOOOOOOOOOOOOOOOOOOOOOOOOOOOOOOOOOOO.=+++++===%%========%%%%===========",
"=============OOOOOOOOOOOOOOOOOOOOOOOOOOO======OOOOOOO=@+++===%=============%%%%========",
"=============OOOOOOOOOOOOOOOOOOOOOOOO============OOOO==+++====================%%%======",
"==============OOOOOOOOOOOOOOOOOOOOOO======%%%%=====OOO=++=======================%%=====",
"==============OOOOOOOOOOOOOOOOOOOO=====%%%%%%%%%%===OO=@+==============================",
"==============OOOOOOOOOOOOOOOOOOO====%%=========%%%===O=+==============================",
"===============OOOOOOOOOOOOOOOO====%%==============%%==================================",
"===============OOOOOOOOOOOOOOO====%==================&$================================",
"===============OOOOOOOOOOOOOO===%=====================%================================",
"===============OOOOOOOOOOOOO===%=======================================================",
"================OOOOOOOOOOO===%========================================================",
"================OOOOOOOOOO===%=========================================================",
"================OOOOOOOOOO==%==========================================================",
"=================OOOOOOOO==%===========================================================",
"=================OOOOOOO==%============================================================",
"=================OOOOOO================================================================",
"==================OOOOO================================================================",
"==================OOOO=================================================================",
"==================OOO==================================================================",
"===================OO==================================================================",
"===================O===================================================================",
"=======================================================================================",
"=======================================================================================",
"=======================================================================================",
"======================================================================================="
};
